# xmcd
#
# Track frame offsets: 
#        150
#        14896
#        35359
#        52162
#        68822
#        85553
#        119286
#        137130
#        153796
#        161985
#        173742
#        202128
#        214729
#        233713
#        246966
#        272842
#        287496
#        304444
#        318044
#        333644
#
# Disc length: 4654 seconds
#
# Revision: 5
# Processed by: cddbd v1.4PL0 Copyright (c) Steve Scherf et al.
# Submitted via: ExactAudioCopy v0.90a11
#
DISCID=2a122c14
DTITLE=ROLLING STONES - FORTY LICKS disc1
DYEAR=2002
DGENRE=
TTITLE0=Street Fighting Man
TTITLE1=Gimme Shelter
TTITLE2=(I Can't Get No)Satisfaction
TTITLE3=The Last Time
TTITLE4=Jumpin' Jack Flash
TTITLE5=You Can't Always Get What You Want
TTITLE6=19th Nervous Breakdown
TTITLE7=Under My Thumb
TTITLE8=Not Fade Away
TTITLE9=Have You Seen Your Mother Baby?
TTITLE10=Sympathy For The Devil
TTITLE11=Mother's Little Helper
TTITLE12=She's A Rainbow
TTITLE13=Get Off Of My Cloud
TTITLE14=Wild Horses
TTITLE15=Ruby Tuesday
TTITLE16=Paint it, Black
TTITLE17=Honky Tonk Women
TTITLE18=It's All Over Now
TTITLE19=Let's Spend The Night Together
EXTD=YEAR: 2002
EXTT0=
EXTT1=
EXTT2=
EXTT3=
EXTT4=
EXTT5=
EXTT6=
EXTT7=
EXTT8=
EXTT9=
EXTT10=
EXTT11=
EXTT12=
EXTT13=
EXTT14=
EXTT15=
EXTT16=
EXTT17=
EXTT18=
EXTT19=
PLAYORDER=
